<svg id="Layer_1" data-name="Layer 1" xmlns="http://www.w3.org/2000/svg" width="65.905" height="15.634" viewBox="0 0 65.905 15.634">
  <path id="Path_108" data-name="Path 108" d="M81.11,12.1V6.46h1.066V8.794L84.532,6.46h1.3l-2.6,2.507,2.9,3.137H84.765L82.176,9.222V12.1Z" transform="translate(-20.233 -1.611)" fill="#fff"/>
  <path id="Path_109" data-name="Path 109" d="M72.28,12.044V6.16l4.158,3.453.345.315q.173.165.368.375V6.385h.983v5.862L73.886,8.734c-.113-.1-.225-.2-.33-.3a4.415,4.415,0,0,1-.3-.33v3.94Z" transform="translate(-18.031 -1.537)" fill="#fff"/>
  <path id="Path_110" data-name="Path 110" d="M68.336,12.049l-.751-1.456H65l-.751,1.456H63.12L66.295,6.18l3.167,5.869ZM65.394,9.8h1.824L66.55,8.514c-.038-.083-.083-.18-.12-.285S66.347,8,66.3,7.869a1.1,1.1,0,0,1-.113.345c-.038.105-.083.2-.12.293Z" transform="translate(-15.746 -1.542)" fill="#fff"/>
  <path id="Path_111" data-name="Path 111" d="M57.57,12.119V6.459h1.651a6,6,0,0,1,1.043.068,1.644,1.644,0,0,1,.57.218,1.344,1.344,0,0,1,.473.5,1.441,1.441,0,0,1,.165.691,1.171,1.171,0,0,1-.24.751,1.283,1.283,0,0,1-.706.42,1.411,1.411,0,0,1,.9.45,1.366,1.366,0,0,1,.33.938,1.554,1.554,0,0,1-.143.653,1.434,1.434,0,0,1-.39.525,1.539,1.539,0,0,1-.668.33,6.41,6.41,0,0,1-1.336.1Zm1.073-.751h.368a6.755,6.755,0,0,0,.833-.038,1.186,1.186,0,0,0,.435-.135.788.788,0,0,0,.3-.3.826.826,0,0,0,.105-.42A.841.841,0,0,0,60.557,10a.856.856,0,0,0-.368-.315,1.411,1.411,0,0,0-.345-.1,3.565,3.565,0,0,0-.518,0h-.683Zm0-2.492h.405a2.334,2.334,0,0,0,1.073-.18.638.638,0,0,0,.315-.6.751.751,0,0,0-.293-.683,2.252,2.252,0,0,0-1.1-.188h-.4V8.839Z" transform="translate(-14.361 -1.611)" fill="#fff"/>
  <path id="Path_112" data-name="Path 112" d="M46.88,10.923l.841-.353a1.013,1.013,0,0,0,.428.578,1.434,1.434,0,0,0,.788.2,1.081,1.081,0,0,0,.751-.225.751.751,0,0,0,.27-.608q0-.5-.916-.886l-.2-.083a4.5,4.5,0,0,1-1.381-.826,1.268,1.268,0,0,1-.345-.9A1.381,1.381,0,0,1,47.638,6.7,2.079,2.079,0,0,1,49,6.269a2.522,2.522,0,0,1,1.163.24,1.313,1.313,0,0,1,.645.691l-.841.368a1.246,1.246,0,0,0-.413-.39,1.051,1.051,0,0,0-.518-.12,1.021,1.021,0,0,0-.653.2.623.623,0,0,0-.24.518q-.023.548,1.073.961l.128.053a3.88,3.88,0,0,1,1.283.751,1.291,1.291,0,0,1,.345.923,1.576,1.576,0,0,1-.563,1.276,2.252,2.252,0,0,1-1.5.473,2.379,2.379,0,0,1-1.313-.33,1.546,1.546,0,0,1-.668-.946Z" transform="translate(-11.694 -1.563)" fill="#fff"/>
  <path id="Path_113" data-name="Path 113" d="M44.38,12.1V6.46H45.4V12.1Z" transform="translate(-11.071 -1.611)" fill="#fff"/>
  <path id="Path_114" data-name="Path 114" d="M36.23,12.107l2.034-3-1.8-2.694h1.1l.886,1.419a4.173,4.173,0,0,1,.27.45l.068.113.15-.255.188-.293.953-1.389h1.043L39.285,9.1l1.981,3H40.14L39.06,10.493h0l-.315-.54-.158.27-.188.285-1.088,1.6Z" transform="translate(-9.038 -1.599)" fill="#fff"/>
  <path id="Path_115" data-name="Path 115" d="M32.826,12.049l-.751-1.456H29.621l-.751,1.456H27.82L30.86,6.18l3,5.869ZM30,9.8h1.749l-.645-1.268a1.173,1.173,0,0,0-.113-.285c-.038-.105-.083-.225-.12-.36a.935.935,0,0,1-.113.345c-.045.105-.075.2-.12.293L30,9.8Z" transform="translate(-6.94 -1.542)" fill="#fff"/>
  <path id="Path_116" data-name="Path 116" d="M0,15.634,9.149,0l2.822,4.728-6.1,10.83L0,15.634Z" fill="#fff"/>
  <path id="Path_117" data-name="Path 117" d="M12.29,12.875l5.644-.075,3.438,5.952h-5.8l-3.28-5.877Z" transform="translate(-3.066 -3.193)" fill="#fff"/>
</svg>
