<svg xmlns="http://www.w3.org/2000/svg" width="26.474" height="24.531" viewBox="0 0 26.474 24.531">
  <path id="_8150287_cart_trolley_basket_bag_shopping_icon" data-name="8150287_cart_trolley_basket_bag_shopping_icon" d="M30.484,9.382a.737.737,0,0,0-.622-.322H8.682c-.207-2.1-.391-3.684-.391-3.73a.806.806,0,0,0-.806-.714h-2.3a.806.806,0,1,0,0,1.589H6.817c.276,2.74,1.22,12.11,1.45,13.814s.737,3.246,2.97,3.615a3.027,3.027,0,1,0,3.96.3l2.947.23,2.924.253a2.993,2.993,0,0,0-.53,1.635,3.062,3.062,0,1,0,6.124,0,3.016,3.016,0,0,0-2.3-2.9.829.829,0,0,0-.391-.161c-.99,0-3.361-.23-5.756-.437s-5.18-.414-6.262-.46c-1.5,0-1.957-.553-2.3-2.3h0l18-.46a.783.783,0,0,0,.76-.6l2.3-8.749A.806.806,0,0,0,30.484,9.382Zm-6.907,18.1a1.45,1.45,0,0,1-1.45-1.45,1.473,1.473,0,0,1,1.427-1.473h0a1.473,1.473,0,0,1,0,2.924Zm-10.682,0a1.473,1.473,0,1,1,1.45-1.45A1.45,1.45,0,0,1,12.9,27.478Zm14.044-9.669-17.382.345c0-.829-.207-1.842-.322-2.947h6.446a.875.875,0,0,0,.852-.875.852.852,0,0,0-.852-.852H9.119l-.276-2.809H28.827Z" transform="translate(-4.241 -4.605)"/>
</svg>
