<svg xmlns="http://www.w3.org/2000/svg" width="30.989" height="28.177" viewBox="0 0 30.989 28.177">
  <g id="_9399920_envelope_mail_email_message_inbox_icon" data-name="9399920_envelope_mail_email_message_inbox_icon" transform="translate(-14.914 -16.6)">
    <g id="Group_66" data-name="Group 66" transform="translate(16.348 17.776)">
      <path id="Path_45" data-name="Path 45" d="M30.12,31.836A5.183,5.183,0,0,1,27,30.357c-.942-.773-1.915-1.608-2.976-2.552a60.733,60.733,0,0,1-5.087-5.313c-.763-.864-1.527-1.73-2.317-2.577A1.082,1.082,0,0,1,16.6,18.5a.834.834,0,0,1,1.269-.027c.8.86,1.578,1.739,2.352,2.616a58.626,58.626,0,0,0,4.928,5.151c1.044.928,2,1.748,2.922,2.506.772.635,1.59,1.238,2.35,1.052s2.31-1.8,3.15-2.674c.256-.265.484-.5.67-.683,1.092-1.068,2.182-2.206,3.235-3.307,1.662-1.736,3.38-3.531,5.19-5.141a.837.837,0,0,1,1.261.157,1.079,1.079,0,0,1-.141,1.405c-1.754,1.561-3.447,3.328-5.082,5.038-1.065,1.112-2.165,2.261-3.278,3.351-.175.171-.39.4-.632.645-1.51,1.564-2.851,2.882-3.983,3.162A2.859,2.859,0,0,1,30.12,31.836Z" transform="translate(-16.348 -17.776)" fill="#cbcbcb" stroke="#000" stroke-width="1"/>
    </g>
    <g id="Group_67" data-name="Group 67" transform="translate(15.414 17.1)">
      <path id="Path_46" data-name="Path 46" d="M35.933,44.276c-2.461,0-5.744-.066-8.641-.123-2.948-.058-5.677-.116-6.945-.087h-.124a4.336,4.336,0,0,1-3.235-1.282,6.917,6.917,0,0,1-1.572-4.851c.073-4.109.049-8.358.024-12.466-.011-1.913-.022-3.819-.024-5.707a2.278,2.278,0,0,1,1.91-2.224,10.1,10.1,0,0,1,2.744-.292l1.084.009.229,0c2.3-.06,8.986-.091,13.864-.113,2.981-.014,5.406-.024,6.033-.038h.129a3.415,3.415,0,0,1,3.071,1.439c.972,1.476.983,4.965.9,8.716-.013.582-.023,1.072-.019,1.418.034,2.973.024,4.693.013,6.51-.006.942-.013,1.911-.013,3.1,0,3.619-2.068,5.612-6.147,5.923C38.546,44.252,37.472,44.276,35.933,44.276Zm-14.786-2.04c1.447,0,3.746.046,6.18.094,2.888.057,6.162.122,8.606.122,1.472,0,2.532-.024,3.149-.071,3.137-.239,4.474-1.466,4.474-4.1,0-1.189.006-2.161.013-3.106.012-1.808.022-3.519-.013-6.477,0-.36.006-.872.019-1.478.045-2.125.137-6.547-.6-7.668a1.747,1.747,0,0,0-1.564-.625c-.721.015-3.157.026-6.154.039-4.87.022-11.541.052-13.824.112l-.277,0-1.084-.009a8.751,8.751,0,0,0-2.232.217c-.614.183-.614.379-.614.473,0,1.884.014,3.787.024,5.7.024,4.119.05,8.379-.024,12.51a5.017,5.017,0,0,0,1.054,3.541,2.569,2.569,0,0,0,1.945.737C20.544,42.238,20.825,42.236,21.147,42.236Z" transform="translate(-15.414 -17.1)" fill="#cbcbcb" stroke="#000" stroke-width="1"/>
    </g>
  </g>
</svg>
