<svg xmlns="http://www.w3.org/2000/svg" width="30.887" height="30.965" viewBox="0 0 30.887 30.965">
  <g id="Layer_6" data-name="Layer 6" transform="translate(0.5 0.5)">
    <path id="Path_28" data-name="Path 28" d="M26.615,42.615H16.208a3.626,3.626,0,0,1-3.618-3.61V16.268a3.626,3.626,0,0,1,3.618-3.618H38.539" transform="translate(-12.59 -12.65)" fill="none" stroke="#cbcbcb" stroke-linecap="round" stroke-linejoin="round" stroke-width="1"/>
    <path id="Path_29" data-name="Path 29" d="M47.45,17.28V40a3.626,3.626,0,0,1-3.618,3.625H36.8" transform="translate(-17.883 -13.662)" fill="none" stroke="#cbcbcb" stroke-linecap="round" stroke-linejoin="round" stroke-width="1"/>
    <circle id="Ellipse_14" data-name="Ellipse 14" cx="0.781" cy="0.781" r="0.781" transform="translate(28.824 0.234)" fill="#fff"/>
    <path id="Path_30" data-name="Path 30" d="M29.578,44.406V34.647H26.14V30.005h3.438V25.528a4.688,4.688,0,0,1,4.688-4.688h4.868v4.415H35.571a1.149,1.149,0,0,0-1.149,1.18v3.547h4.688V34.67H34.422v9.736" transform="translate(-15.553 -14.441)" fill="none" stroke="#cbcbcb" stroke-linecap="round" stroke-linejoin="round" stroke-width="1"/>
  </g>
</svg>
