<svg xmlns="http://www.w3.org/2000/svg" width="30.888" height="30.965" viewBox="0 0 30.888 30.965">
  <g id="Layer_6" data-name="Layer 6" transform="translate(0.5 0.5)">
    <path id="Path_31" data-name="Path 31" d="M42.127,16.449V39.177A3.626,3.626,0,0,1,38.516,42.8H16.171a3.626,3.626,0,0,1-3.611-3.611V16.449a3.626,3.626,0,0,1,3.611-3.619H38.516" transform="translate(-12.56 -12.83)" fill="none" stroke="#cbcbcb" stroke-linecap="round" stroke-linejoin="round" stroke-width="1"/>
    <circle id="Ellipse_15" data-name="Ellipse 15" cx="0.782" cy="0.782" r="0.782" transform="translate(28.825 0.234)" fill="#cbcbcb"/>
    <circle id="Ellipse_16" data-name="Ellipse 16" cx="0.782" cy="0.782" r="0.782" transform="translate(19.907 8.73)" fill="#cbcbcb"/>
    <path id="Path_32" data-name="Path 32" d="M23.012,20.32A2.931,2.931,0,0,0,20.3,23.243V35.654a2.947,2.947,0,0,0,2.939,2.939h6.714" transform="translate(-14.251 -14.466)" fill="none" stroke="#cbcbcb" stroke-linecap="round" stroke-linejoin="round" stroke-width="1"/>
    <path id="Path_33" data-name="Path 33" d="M30.71,38.587h5.7a2.947,2.947,0,0,0,2.939-2.939V23.237A2.947,2.947,0,0,0,36.408,20.3H24a1.071,1.071,0,0,0-.227,0" transform="translate(-15.009 -14.46)" fill="none" stroke="#cbcbcb" stroke-linecap="round" stroke-linejoin="round" stroke-width="1"/>
    <path id="Path_34" data-name="Path 34" d="M32.331,26.66a4.408,4.408,0,1,0,2.845,4.111" transform="translate(-15.574 -15.788)" fill="none" stroke="#cbcbcb" stroke-linecap="round" stroke-linejoin="round" stroke-width="1"/>
  </g>
</svg>
