<svg xmlns="http://www.w3.org/2000/svg" width="49.498" height="13.214" viewBox="0 0 49.498 13.214">
  <g id="Layer_2" data-name="Layer 2" transform="translate(0.004 0.014)">
    <g id="Layer_1" data-name="Layer 1">
      <path id="Path_118" data-name="Path 118" d="M33.4,0H29.55A.53.53,0,0,0,29,.45l-1.56,9.87a.32.32,0,0,0,.32.37h2a.37.37,0,0,0,.37-.32l.44-2.8a.53.53,0,0,1,.53-.45h1.22c2.54,0,4-1.23,4.38-3.66A3,3,0,0,0,36.21,1,3.57,3.57,0,0,0,33.4,0Zm.44,3.61C33.63,5,32.58,5,31.56,5H31l.41-2.58a.32.32,0,0,1,.32-.27H32c.69,0,1.35,0,1.69.4a1.28,1.28,0,0,1,.15,1.06Z" fill="#fff"/>
      <path id="Path_119" data-name="Path 119" d="M5.94,0H2.09a.53.53,0,0,0-.53.45L0,10.32a.32.32,0,0,0,.32.37H2.16a.53.53,0,0,0,.53-.45l.42-2.66a.53.53,0,0,1,.53-.45H4.85c2.54,0,4-1.23,4.38-3.66A3,3,0,0,0,8.75,1,3.57,3.57,0,0,0,5.94,0Zm.44,3.61C6.17,5,5.12,5,4.1,5H3.52l.41-2.58a.32.32,0,0,1,.32-.27h.27c.69,0,1.35,0,1.69.4A1.28,1.28,0,0,1,6.38,3.61Z" fill="#fff"/>
      <path id="Path_120" data-name="Path 120" d="M17.45,3.56H15.6a.32.32,0,0,0-.32.27l-.08.52-.13-.19a2.62,2.62,0,0,0-2.18-.77A4.24,4.24,0,0,0,8.78,7.1a3.48,3.48,0,0,0,.69,2.83,2.89,2.89,0,0,0,2.32.94,3.53,3.53,0,0,0,2.55-1.05l-.08.51a.32.32,0,0,0,.32.37h1.66a.53.53,0,0,0,.53-.45l1-6.31a.32.32,0,0,0-.32-.38ZM14.88,7.15A2.06,2.06,0,0,1,12.8,8.91a1.56,1.56,0,0,1-1.24-.5,1.57,1.57,0,0,1-.29-1.29,2.06,2.06,0,0,1,2.07-1.77,1.55,1.55,0,0,1,1.23.5,1.59,1.59,0,0,1,.31,1.3Z" fill="#fff"/>
      <path id="Path_121" data-name="Path 121" d="M44.91,3.56H43.06a.32.32,0,0,0-.32.27l-.08.52-.13-.19a2.62,2.62,0,0,0-2.18-.77A4.24,4.24,0,0,0,36.24,7.1a3.48,3.48,0,0,0,.69,2.83,2.89,2.89,0,0,0,2.32.94A3.53,3.53,0,0,0,41.8,9.81l-.08.51a.32.32,0,0,0,.32.37H43.7a.53.53,0,0,0,.53-.45l1-6.31a.32.32,0,0,0-.32-.37ZM42.34,7.15a2.06,2.06,0,0,1-2.08,1.76A1.56,1.56,0,0,1,39,8.41a1.57,1.57,0,0,1-.29-1.29A2.06,2.06,0,0,1,40.8,5.34a1.55,1.55,0,0,1,1.23.5,1.59,1.59,0,0,1,.31,1.31Z" fill="#fff"/>
      <path id="Path_122" data-name="Path 122" d="M27.27,3.56H25.41A.54.54,0,0,0,25,3.8L22.41,7.56,21.33,3.94a.54.54,0,0,0-.51-.38H19a.32.32,0,0,0-.3.42l2,6-1.92,2.71a.32.32,0,0,0,.26.51h1.85a.53.53,0,0,0,.44-.23l6.16-8.89a.32.32,0,0,0-.22-.52Z" fill="#fff"/>
      <path id="Path_123" data-name="Path 123" d="M47.08.27,45.5,10.32a.32.32,0,0,0,.32.37h1.59a.53.53,0,0,0,.53-.45L49.49.37A.32.32,0,0,0,49.18,0H47.4a.32.32,0,0,0-.32.27Z" fill="#fff"/>
    </g>
  </g>
</svg>
