<svg id="Layer_2" data-name="Layer 2" xmlns="http://www.w3.org/2000/svg" width="59.05" height="15.381" viewBox="0 0 59.05 15.381">
  <g id="Layer_1" data-name="Layer 1">
    <path id="Path_124" data-name="Path 124" d="M33.29,3.12C33.57.92,31.89,0,29.79,0h-5.5L21,11.84h3.5l1-3.65h2.79S32.62,8.39,33.29,3.12ZM29.69,4.3A1.65,1.65,0,0,1,28,5.42H26.27l.68-2.52h1.8a1,1,0,0,1,.94,1.4Z" fill="#fff"/>
    <path id="Path_125" data-name="Path 125" d="M13.3,3.24h3.19L15.18,8.29s-.33,1.13.73,1.21c.83.07,1.45-.93,1.66-1.6.27-.88,1.3-4.67,1.3-4.67h3.29l-2.5,8.61H16.78l.35-1.23a4.56,4.56,0,0,1-3.64,1.57c-1.93-.19-2.1-1.59-1.77-3.34C11.89,8,13.3,3.24,13.3,3.24Z" fill="#fff"/>
    <path id="Path_126" data-name="Path 126" d="M41,7.6c.42-1.43,1-2.79.52-3.54-.6-1.15-1.79-1.25-3.52-1.25-1.91,0-4.28.36-5,2.91h3.19a1.4,1.4,0,0,1,1.49-.9c1.06.05,1,.78.61,1.18-.68.71-2.57.31-4.67,1a3.54,3.54,0,0,0-2.07,4c.38.93,1.1,1,2.07,1.14A4.36,4.36,0,0,0,36.87,11c0,.56,0,.88,0,.88h3.35v-.32a.435.435,0,0,1-.27-.5C39.98,10.64,40.57,9.24,41,7.6Zm-4.82,2.49c-.55.14-1.21.21-1.34-.28C34.53,8.45,37.71,8,37.71,8a2.2,2.2,0,0,1-1.48,2.09Z" fill="#fff"/>
    <path id="Path_127" data-name="Path 127" d="M12.51,2.76C12.79.56,10.85,0,8.75,0H3.25L0,11.84H3.5l1.09-4h2s.81,0,.83.71-.6,2.3-.56,3.29h3.59v-.32a.435.435,0,0,1-.27-.5,12.48,12.48,0,0,1,.46-1.47A4.54,4.54,0,0,0,11,7.82c0-.79-.52-1.16-1.24-1.42C12,5.87,12.51,2.76,12.51,2.76ZM8.8,4.27c-.45,1-1.85.93-1.85.93H5.31L5.91,3H8.08C8.85,3,9.09,3.59,8.8,4.27Z" fill="#fff"/>
    <path id="Path_128" data-name="Path 128" d="M42.57,3.24h3.25V8.4l2.81-5.16h3l-6,10.44A5.29,5.29,0,0,1,44.35,15a2.85,2.85,0,0,1-1.48.38H40.24l.69-2.49h1.12a1.23,1.23,0,0,0,.71-.3,1.24,1.24,0,0,0,.28-.83C43,11.22,42.57,3.24,42.57,3.24Z" fill="#fff"/>
    <path id="Path_129" data-name="Path 129" d="M55.78,1.25,52.03,14.3l7.02-6.52Z" fill="#fff"/>
    <path id="Path_130" data-name="Path 130" d="M53.37,1.25,49.62,14.3l7.03-6.52Z" fill="#fff"/>
  </g>
</svg>
