<svg width="14" height="14" viewBox="0 0 14 14" fill="none" xmlns="http://www.w3.org/2000/svg">
<path d="M6.26213 0C6.51459 0.0369447 6.76704 0.0615745 7.01745 0.108782C8.23046 0.33866 9.26697 0.903093 10.1311 1.7795C10.9172 2.57792 11.4364 3.52617 11.6581 4.6263C11.9373 6.00968 11.7443 7.32737 11.0506 8.55886C10.8289 8.95294 10.5477 9.31418 10.285 9.70415C10.2932 9.71236 10.3219 9.7452 10.3527 9.77599C11.498 10.9049 12.6454 12.0317 13.7906 13.1605C14.039 13.4048 14.0677 13.6634 13.8686 13.8645C13.6695 14.0636 13.4007 14.039 13.1585 13.8009C12.005 12.6659 10.8535 11.5329 9.70004 10.3979C9.6672 10.3671 9.63437 10.3363 9.59947 10.3055C9.41475 10.4328 9.23824 10.56 9.05351 10.677C8.02316 11.3277 6.89224 11.6314 5.67717 11.5863C4.07624 11.5268 2.71133 10.911 1.59683 9.75751C0.75942 8.88931 0.252456 7.85486 0.063627 6.66442C0.0410497 6.50227 0.0225773 6.34013 0 6.18003C0 5.92552 0 5.66896 0 5.41445C0.00820994 5.37546 0.0184724 5.33646 0.0246298 5.29541C0.0595221 5.06553 0.0800469 4.8336 0.127254 4.60783C0.35508 3.52412 0.862044 2.58613 1.63583 1.79592C2.50403 0.909251 3.54669 0.33866 4.76998 0.108782C5.01012 0.063627 5.25436 0.0348922 5.49656 0C5.75106 0 6.00557 0 6.26213 0ZM10.8823 5.76543C10.8597 5.54376 10.8433 5.2831 10.8022 5.02859C10.5682 3.61032 9.83756 2.50608 8.64712 1.71998C7.58393 1.01598 6.40375 0.769682 5.13942 0.956458C3.88741 1.14118 2.84474 1.71793 2.04222 2.68876C1.06934 3.86483 0.712212 5.22563 1.00572 6.72599C1.30333 8.24688 2.16332 9.39833 3.53438 10.1064C5.19894 10.9664 6.88609 10.9315 8.49729 9.96071C10.0469 9.02683 10.8084 7.60446 10.8823 5.76543Z" fill="black"/>
</svg>
