<?xml version="1.0" encoding="UTF-8"?>
<svg xmlns="http://www.w3.org/2000/svg" version="1.1" viewBox="0 0 640 860">
  <defs>
    <style>
      .cls-1 {
        fill: #fff;
      }
    </style>
  </defs>
  <!-- Generator: Adobe Illustrator 28.6.0, SVG Export Plug-In . SVG Version: 1.2.0 Build 709)  -->
  <g>
    <g id="Layer_1">
      <rect width="640" height="860"/>
      <path class="cls-1" d="M305.5,487.8h-16.6l-35.9,30.6v-30.6h-12.9v67h12.9v-31.8l36.2,31.8h17.8l-39.6-34.9,38-32ZM316.7,554.8h12.5v-67h-12.5v67ZM463.3,487.8v48.2l-27.6-28.9h0s-18.5-19.3-18.5-19.3h-11.3v39.2h0v9s-46.1-48.2-46.1-48.2h-11.3v67h12.5v-48.2l46,48.2h11.4s0-15.2,0-27.8v-20.3l17.3,18.1c11.5,12,28.2,29.6,28.6,30h0c0,0,11.4,0,11.4,0v-67h-12.5ZM177,506.6c0-6.2,7.2-8.9,18.8-8.9,11.9,0,18.5,5,18.4,11.6h12.1c-.2-14-12.6-23-31.3-23s-29.7,7.7-29.7,21.3c0,28.5,51,11.5,51,27.7s-8.2,9.6-21.2,9.5c-12.1,0-19-5-18.9-11.5h-12.1c-.2,13.7,12.4,23,31.9,23s31.9-7.8,31.9-21.4c0-29.4-50.9-13.5-50.9-28.3M330.8,370.4l-5.9,5.9h6.1s21.2,0,21.2,0c-1.5,17.5-16.1,32.1-32.5,32.1h0c-6.4,0-13.4-3.4-21.4-10.3-2.1-1.8-3.9-3.8-5.4-6l-4.3,4.4c1.7,2.3,3.6,4.4,5.8,6.2,7,6.1,16,9.4,25.3,9.4h0c21.4,0,38.7-17.5,38.7-38.8v-2.8h-27.6ZM309.7,376.3l6-6h-28.2c1.5-17.5,16.1-32,32.5-32.1h0c6.4,0,13.4,3.4,21.4,10.3,1.9,1.7,3.6,3.5,5.1,5.6l4.3-4.4c-1.6-2.1-3.4-4-5.4-5.8-7-6.1-16-9.4-25.3-9.4h0c-21.4,0-38.7,17.4-38.7,38.8v3s28.4,0,28.4,0ZM363.5,328.7c-25.5-25.4-65.7-26.4-89.8-2.2-24.1,24.2-22.9,64.4,2.6,89.8,25.5,25.4,65.7,26.4,89.8,2.2,24.1-24.2,22.9-64.4-2.6-89.8M368.4,323.7c26.9,26.8,27,70.4.2,97.3-26.8,26.9-70.4,27-97.3.2-26.9-26.8-27-70.4-.2-97.3,26.8-26.9,70.4-27,97.3-.2"/>
    </g>
  </g>
</svg>