<svg xmlns="http://www.w3.org/2000/svg" width="17.31" height="24.088" viewBox="0 0 17.31 24.088">
  <g id="Layer_2" transform="translate(-91.797 -27.5)">
    <g id="Group_47" data-name="Group 47" transform="translate(91.797 27.5)">
      <path id="Path_22" data-name="Path 22" d="M160.608,38.748a4.922,4.922,0,0,0,3.837-2.042,6.718,6.718,0,0,0,1.472-4.073,5.012,5.012,0,0,0-1.594-3.7,5.542,5.542,0,0,0-7.427,0,5.012,5.012,0,0,0-1.594,3.7,6.713,6.713,0,0,0,1.472,4.073A4.919,4.919,0,0,0,160.608,38.748Zm-2.562-8.587a3.854,3.854,0,0,1,5.123,0,3.343,3.343,0,0,1,1.059,2.472c0,2.006-1.616,4.429-3.621,4.429s-3.621-2.423-3.621-4.429A3.342,3.342,0,0,1,158.046,30.161Z" transform="translate(-151.953 -27.5)"/>
      <path id="Path_23" data-name="Path 23" d="M92.405,253.6a6.836,6.836,0,0,0-.537,3.965,31.709,31.709,0,0,0,.823,4.521.843.843,0,0,0,.814.625H107.4a.844.844,0,0,0,.815-.625,31.692,31.692,0,0,0,.821-4.521,6.833,6.833,0,0,0-.537-3.965,6.63,6.63,0,0,0-2.87-2.769,8.816,8.816,0,0,0-.886-.4.844.844,0,0,0-.743.063,6.716,6.716,0,0,1-7.1,0,.843.843,0,0,0-.743-.063,8.816,8.816,0,0,0-.886.4A6.624,6.624,0,0,0,92.405,253.6Zm3.653-1.275c.115-.06.233-.118.353-.173a8.37,8.37,0,0,0,8.079,0c.12.055.238.112.353.172a4.939,4.939,0,0,1,2.148,2.036,5.162,5.162,0,0,1,.367,3.007h0a32.149,32.149,0,0,1-.618,3.656H94.162a32.141,32.141,0,0,1-.619-3.656,5.164,5.164,0,0,1,.367-3.008A4.94,4.94,0,0,1,96.058,252.325Z" transform="translate(-91.797 -238.623)"/>
    </g>
  </g>
</svg>
