<svg xmlns="http://www.w3.org/2000/svg" width="35.43" height="10.921" viewBox="0 0 35.43 10.921">
  <g id="Layer_2" data-name="Layer 2" transform="translate(0 0.001)">
    <g id="Layer_1" data-name="Layer 1">
      <path id="Path_131" data-name="Path 131" d="M12.48,10.73,14.28.2h2.88L15.37,10.73Z" fill="#fff"/>
      <path id="Path_132" data-name="Path 132" d="M25.78.44A7.18,7.18,0,0,0,23.19,0c-2.84,0-4.84,1.43-4.84,3.47,0,1.51,1.43,2.36,2.52,2.86s1.49.85,1.49,1.31c0,.71-.89,1-1.71,1A6.17,6.17,0,0,1,18,8.13L17.59,8l-.4,2.36a9.06,9.06,0,0,0,3.21.56c3,0,5-1.41,5-3.59,0-1.19-.75-2.12-2.4-2.86-1-.48-1.61-.81-1.61-1.31s.52-.91,1.63-.91a5,5,0,0,1,2.14.4l.26.12.36-2.3" fill="#fff"/>
      <path id="Path_133" data-name="Path 133" d="M33.14.2H30.92a1.44,1.44,0,0,0-1.51.87l-4.26,9.64h3s.48-1.29.61-1.57h3.67l.34,1.57h2.66L33.14.2M29.59,7c.24-.61,1.15-2.94,1.15-2.94s.24-.61.38-1l.2.91s.54,2.52.67,3Z" fill="#fff"/>
      <path id="Path_134" data-name="Path 134" d="M10.08.2,7.28,7.38,7,5.93A8.19,8.19,0,0,0,3,1.51l2.56,9.22h3L13.13.2h-3" fill="#fff"/>
      <path id="Path_135" data-name="Path 135" d="M4.68.2H0V.42c3.61.87,6,3,7,5.51L6,1.09A1.2,1.2,0,0,0,4.68.2" fill="#fff"/>
    </g>
  </g>
</svg>
