<svg xmlns="http://www.w3.org/2000/svg" width="30.888" height="30.965" viewBox="0 0 30.888 30.965">
  <g id="Layer_6" data-name="Layer 6" transform="translate(0.5 0.5)">
    <path id="Path_42" data-name="Path 42" d="M42.126,16.449V39.176a3.626,3.626,0,0,1-3.611,3.619H16.171a3.626,3.626,0,0,1-3.611-3.611V16.449a3.626,3.626,0,0,1,3.611-3.619H38.516" transform="translate(-12.56 -12.83)" fill="none" stroke="#bebebe" stroke-linecap="round" stroke-linejoin="round" stroke-width="1"/>
    <circle id="Ellipse_17" data-name="Ellipse 17" cx="0.782" cy="0.782" r="0.782" transform="translate(28.825 0.234)" fill="#bebebe"/>
    <path id="Path_43" data-name="Path 43" d="M29.488,27.884,27.964,26.36l-.68.68a2.4,2.4,0,0,0,0,3.392l3.736,3.736a2.4,2.4,0,0,0,3.392,0l.68-.68-1.149-1.157" transform="translate(-15.622 -15.786)" fill="none" stroke="#bebebe" stroke-linecap="round" stroke-linejoin="round" stroke-width="1"/>
    <path id="Path_44" data-name="Path 44" d="M38.419,29.51a8.91,8.91,0,0,1-13.357,7.722l-2.024.539L20.6,38.42l.649-2.438.539-2.024A8.91,8.91,0,1,1,38.419,29.51Z" transform="translate(-14.316 -14.528)" fill="none" stroke="#bebebe" stroke-linecap="round" stroke-linejoin="round" stroke-width="1"/>
  </g>
</svg>
