<svg xmlns="http://www.w3.org/2000/svg" width="23.736" height="21.117" viewBox="0 0 23.736 21.117">
  <path id="_8150286_wishlist_save_save_for_later_shopping_ecommerce_icon" data-name="8150286_wishlist_save_save for later_shopping_ecommerce_icon" d="M25.747,6.886A7.136,7.136,0,0,0,19.82,3.81,6.393,6.393,0,0,0,15,5.867,6.411,6.411,0,0,0,10.179,3.81,7.136,7.136,0,0,0,4.252,6.886a7.292,7.292,0,0,0-.311,7.223,18.437,18.437,0,0,0,3.611,5.339,40.5,40.5,0,0,0,5.581,4.873,3.179,3.179,0,0,0,3.732,0,40.364,40.364,0,0,0,5.581-4.873,18.437,18.437,0,0,0,3.611-5.339A7.292,7.292,0,0,0,25.747,6.886ZM24.607,13.5a17.279,17.279,0,0,1-3.318,4.873,39.259,39.259,0,0,1-5.357,4.665,1.555,1.555,0,0,1-1.866,0A39.4,39.4,0,0,1,8.71,18.377,16.847,16.847,0,0,1,5.392,13.5,5.84,5.84,0,0,1,5.565,7.75,5.547,5.547,0,0,1,10.179,5.4a4.838,4.838,0,0,1,3.871,1.728,1.4,1.4,0,0,0,1.935,0A4.838,4.838,0,0,1,19.82,5.4a5.547,5.547,0,0,1,4.614,2.35A5.84,5.84,0,0,1,24.607,13.5Z" transform="translate(-3.132 -3.809)"/>
</svg>
